<?xml version="1.0" standalone="no"?>
<svg
  width="300"
  height="500"
  viewBox="0 0 510 500"
  xmlns="http://www.w3.org/2000/svg"
>
  <g transform="translate(255,240)">
    <path fill="rgba(0,0,0,0.8)" d="M83.2,-124.5C113.9,-109.9,148.8,-96.9,175.2,-70.7C201.7,-44.6,219.6,-5.2,209.9,26.9C200.2,59,162.8,83.9,127.3,91.9C91.7,100,58,91.2,29.7,98.1C1.5,104.9,-21.2,127.3,-47.1,132.4C-72.9,137.6,-101.8,125.4,-142.3,107.4C-182.8,89.3,-234.9,65.3,-241.1,33.7C-247.2,2,-207.3,-37.2,-166.9,-55.7C-126.5,-74.2,-85.7,-72,-57.8,-88C-29.9,-103.9,-15,-137.9,5.7,-146.8C26.3,-155.6,52.6,-139.2,83.2,-124.5Z"/>
  </g>
</svg>
  