<?xml version="1.0" encoding="utf-8"?>
<!-- Generator: Adobe Illustrator 23.0.0, SVG Export Plug-In . SVG Version: 6.00 Build 0)  -->
<svg version="1.1" id="Calque_1" xmlns="http://www.w3.org/2000/svg" xmlns:xlink="http://www.w3.org/1999/xlink" x="0px" y="0px"
	 viewBox="0 0 2048 2048" style="enable-background:new 0 0 2048 2048;" xml:space="preserve">
<style type="text/css">
	.st0{fill:#82C586;}
</style>
<image style="overflow:visible;" width="3447" height="3448" xlink:href="3427F652.jpg"  transform="matrix(0.5941 0 0 0.594 0 0)">
</image>
<g>
	
		<image style="overflow:visible;opacity:0.76;" width="1194" height="1322" xlink:href="3427F656.png"  transform="matrix(1 0 0 1 436 390)">
	</image>
	<g>
		<path class="st0" d="M576,1472c0,35.3,28.7,64,64,64h768c35.3,0,64-28.7,64-64c0-13.4-4.5-26.2-11.5-36.5L1088,790.4V512H960
			v278.4l-372.5,645.1C580.5,1445.8,576,1458.6,576,1472 M640,1664c-106,0-192-86-192-192c0-38.4,11.5-74.2,32-104.3l352-611.8V640
			c-35.3,0-64-28.7-64-64v-64c0-70.7,57.3-128,128-128h256c70.7,0,128,57.3,128,128v64c0,35.3-28.7,64-64,64v115.8l352,611.8
			c20.5,30.1,32,65.9,32,104.3c0,106-86,192-192,192H640 M1088,1280l85.8-85.8l123.5,213.8H750.7L921,1113L1088,1280 M1056,1024
			c17.7,0,32,14.3,32,32s-14.3,32-32,32s-32-14.3-32-32S1038.3,1024,1056,1024z"/>
	</g>
</g>
</svg>
