<?xml version="1.0" standalone="no"?>
<svg
   width="600"
  height="600"
  viewBox="0 0 600 600"
  xmlns="http://www.w3.org/2000/svg"
>
  <g transform="translate(300,300)">
    <path fill="rgba(0,0,0,0.8)" d="M131.6,-142.5C178.4,-117.6,229.5,-83.6,248,-35.4C266.5,12.8,252.3,75.2,208,90.2C163.7,105.1,89.2,72.8,44.8,62.7C0.5,52.6,-13.8,64.8,-45.4,74.9C-77,85,-126,93,-169.2,71.7C-212.5,50.4,-250,-0.1,-233.1,-31.5C-216.1,-62.9,-144.7,-75.1,-96.8,-99.8C-48.9,-124.6,-24.4,-161.8,9,-172.5C42.4,-183.2,84.8,-167.5,131.6,-142.5Z" />
  </g>
</svg>
  